#Comment line ignore any data following # character 
#Hierarchical Translation and Rotation (.htr) file 
[Header]	
#Header keywords are followed by a single value 
FileType HTR		#Single word string
DataType HTRS		#Translation followed by rotation and scale data
FileVersion 1		#integer
NumSegments 64		#integer
NumFrames 3		#integer
DataFrameRate 30		#integer, data frame rate in this file
EulerRotationOrder ZYX
CalibrationUnits mm
RotationUnits Degrees
GlobalAxisofGravity Y
BoneLengthAxis Y
ScaleFactor 1.00
[SegmentNames&Hierarchy]
#CHILD	PARENT
Pinger_Root GLOBAL
Pelvis Pinger_Root
L_Hip Pelvis
R_Hip Pelvis
Rear_Leg01 Pelvis
Spine1 Pelvis
L_Leg01 L_Hip
L_Leg02 L_Leg01
L_Leg03 L_Leg02
L_Foot L_Leg03
L_Toe1_01 L_Foot
L_Toe2_01 L_Foot
L_Toe3_01 L_Foot
planeAlignerLeft L_Foot
L_Toe1_02 L_Toe1_01
L_Toe1_03 L_Toe1_02
L_Toe2_02 L_Toe2_01
L_Toe2_03 L_Toe2_02
L_Toe3_02 L_Toe3_01
L_Toe3_03 L_Toe3_02
planeLockWeightLeft planeAlignerLeft
R_Leg01 R_Hip
R_Leg02 R_Leg01
R_Leg03 R_Leg02
R_Foot R_Leg03
planeAlignerRight R_Foot
R_Toe1_01 R_Foot
R_Toe2_01 R_Foot
R_Toe3_01 R_Foot
planeLockWeightRight planeAlignerRight
R_Toe1_02 R_Toe1_01
R_Toe1_03 R_Toe1_02
R_Toe2_02 R_Toe2_01
R_Toe2_03 R_Toe2_02
R_Toe3_02 R_Toe3_01
R_Toe3_03 R_Toe3_02
Rear_Leg02 Rear_Leg01
Rear_Leg03 Rear_Leg02
Rear_Leg04 Rear_Leg03
Rear_Foot Rear_Leg04
planeAlignerCenter Rear_Foot
Rear_Toe1_01 Rear_Foot
Rear_Toe2_01 Rear_Foot
Rear_Toe3_01 Rear_Foot
planeLockWeightCenter planeAlignerCenter
Rear_Toe1_02 Rear_Toe1_01
Rear_Toe1_03 Rear_Toe1_02
Rear_Toe2_02 Rear_Toe2_01
Rear_Toe2_03 Rear_Toe2_02
Rear_Toe3_02 Rear_Toe3_01
Rear_Toe3_03 Rear_Toe3_02
Back_Bone Spine1
Head Spine1
Motor_Bone Back_Bone
Ping_Mechanism Back_Bone
BN_LookIK Head
bottomMouth Head
L_Mouth01 Head
L_mouthFront Head
mouthGun Head
R_Mouth01 Head
R_mouthFront Head
TopMouth Head
weapon_bone Head
[BasePosition]
#SegmentName Tx, Ty, Tz, Rx, Ry, Rz, BoneLength
Pinger_Root 0.000000 0.000000 0.000000 -90.000000 0.000000 0.000000 10.000000 
Pelvis 0.000000 0.000000 0.000000 0.000000 0.000000 0.000000 10.000000 
L_Hip 0.000000 0.000000 0.000000 0.000000 0.000000 0.000000 10.000000 
R_Hip 0.000000 0.000000 0.000000 0.000000 0.000000 0.000000 10.000000 
Rear_Leg01 0.000000 0.000000 0.000000 0.000000 0.000000 0.000000 10.000000 
Spine1 0.000000 0.000000 0.000000 0.000000 0.000000 0.000000 10.000000 
L_Leg01 0.000000 0.000000 0.000000 0.000000 0.000000 0.000000 10.000000 
L_Leg02 0.000000 0.000000 0.000000 0.000000 0.000000 0.000000 10.000000 
L_Leg03 0.000000 0.000000 0.000000 0.000000 0.000000 0.000000 10.000000 
L_Foot 0.000000 0.000000 0.000000 0.000000 0.000000 0.000000 10.000000 
L_Toe1_01 0.000000 0.000000 0.000000 0.000000 0.000000 0.000000 10.000000 
L_Toe2_01 0.000000 0.000000 0.000000 0.000000 0.000000 0.000000 10.000000 
L_Toe3_01 0.000000 0.000000 0.000000 0.000000 0.000000 0.000000 10.000000 
planeAlignerLeft 0.000000 0.000000 0.000000 0.000000 0.000000 0.000000 10.000000 
L_Toe1_02 0.000000 0.000000 0.000000 0.000000 0.000000 0.000000 10.000000 
L_Toe1_03 0.000000 0.000000 0.000000 0.000000 0.000000 0.000000 10.000000 
L_Toe2_02 0.000000 0.000000 0.000000 0.000000 0.000000 0.000000 10.000000 
L_Toe2_03 0.000000 0.000000 0.000000 0.000000 0.000000 0.000000 10.000000 
L_Toe3_02 0.000000 0.000000 0.000000 0.000000 0.000000 0.000000 10.000000 
L_Toe3_03 0.000000 0.000000 0.000000 0.000000 0.000000 0.000000 10.000000 
planeLockWeightLeft 0.000000 0.000000 0.000000 0.000000 0.000000 0.000000 10.000000 
R_Leg01 0.000000 0.000000 0.000000 0.000000 0.000000 0.000000 10.000000 
R_Leg02 0.000000 0.000000 0.000000 0.000000 0.000000 0.000000 10.000000 
R_Leg03 0.000000 0.000000 0.000000 0.000000 0.000000 0.000000 10.000000 
R_Foot 0.000000 0.000000 0.000000 0.000000 0.000000 0.000000 10.000000 
planeAlignerRight 0.000000 0.000000 0.000000 0.000000 0.000000 0.000000 10.000000 
R_Toe1_01 0.000000 0.000000 0.000000 0.000000 0.000000 0.000000 10.000000 
R_Toe2_01 0.000000 0.000000 0.000000 0.000000 0.000000 0.000000 10.000000 
R_Toe3_01 0.000000 0.000000 0.000000 0.000000 0.000000 0.000000 10.000000 
planeLockWeightRight 0.000000 0.000000 0.000000 0.000000 0.000000 0.000000 10.000000 
R_Toe1_02 0.000000 0.000000 0.000000 0.000000 0.000000 0.000000 10.000000 
R_Toe1_03 0.000000 0.000000 0.000000 0.000000 0.000000 0.000000 10.000000 
R_Toe2_02 0.000000 0.000000 0.000000 0.000000 0.000000 0.000000 10.000000 
R_Toe2_03 0.000000 0.000000 0.000000 0.000000 0.000000 0.000000 10.000000 
R_Toe3_02 0.000000 0.000000 0.000000 0.000000 0.000000 0.000000 10.000000 
R_Toe3_03 0.000000 0.000000 0.000000 0.000000 0.000000 0.000000 10.000000 
Rear_Leg02 0.000000 0.000000 0.000000 0.000000 0.000000 0.000000 10.000000 
Rear_Leg03 0.000000 0.000000 0.000000 0.000000 0.000000 0.000000 10.000000 
Rear_Leg04 0.000000 0.000000 0.000000 0.000000 0.000000 0.000000 10.000000 
Rear_Foot 0.000000 0.000000 0.000000 0.000000 0.000000 0.000000 10.000000 
planeAlignerCenter 0.000000 0.000000 0.000000 0.000000 0.000000 0.000000 10.000000 
Rear_Toe1_01 0.000000 0.000000 0.000000 0.000000 0.000000 0.000000 10.000000 
Rear_Toe2_01 0.000000 0.000000 0.000000 0.000000 0.000000 0.000000 10.000000 
Rear_Toe3_01 0.000000 0.000000 0.000000 0.000000 0.000000 0.000000 10.000000 
planeLockWeightCenter 0.000000 0.000000 0.000000 0.000000 0.000000 0.000000 10.000000 
Rear_Toe1_02 0.000000 0.000000 0.000000 0.000000 0.000000 0.000000 10.000000 
Rear_Toe1_03 0.000000 0.000000 0.000000 0.000000 0.000000 0.000000 10.000000 
Rear_Toe2_02 0.000000 0.000000 0.000000 0.000000 0.000000 0.000000 10.000000 
Rear_Toe2_03 0.000000 0.000000 0.000000 0.000000 0.000000 0.000000 10.000000 
Rear_Toe3_02 0.000000 0.000000 0.000000 0.000000 0.000000 0.000000 10.000000 
Rear_Toe3_03 0.000000 0.000000 0.000000 0.000000 0.000000 0.000000 10.000000 
Back_Bone 0.000000 0.000000 0.000000 0.000000 0.000000 0.000000 10.000000 
Head 0.000000 0.000000 0.000000 0.000000 0.000000 0.000000 10.000000 
Motor_Bone 0.000000 0.000000 0.000000 0.000000 0.000000 0.000000 10.000000 
Ping_Mechanism 0.000000 0.000000 0.000000 0.000000 0.000000 0.000000 10.000000 
BN_LookIK 0.000000 0.000000 0.000000 0.000000 0.000000 0.000000 10.000000 
bottomMouth 0.000000 0.000000 0.000000 0.000000 0.000000 0.000000 10.000000 
L_Mouth01 0.000000 0.000000 0.000000 0.000000 0.000000 0.000000 10.000000 
L_mouthFront 0.000000 0.000000 0.000000 0.000000 0.000000 0.000000 10.000000 
mouthGun 0.000000 0.000000 0.000000 0.000000 0.000000 0.000000 10.000000 
R_Mouth01 0.000000 0.000000 0.000000 0.000000 0.000000 0.000000 10.000000 
R_mouthFront 0.000000 0.000000 0.000000 0.000000 0.000000 0.000000 10.000000 
TopMouth 0.000000 0.000000 0.000000 0.000000 0.000000 0.000000 10.000000 
weapon_bone 0.000000 0.000000 0.000000 0.000000 0.000000 0.000000 10.000000 
#Beginning of Data. Separated by tabs
#Fr	Tx	Ty	Tz	Rx	Ry	Rz	SF
[Pinger_Root]
38 0.000000 -4796.294922 0.000000 -0.000075 -0.000000 -0.000020 4796.294434
39 0.000000 -4925.924316 0.000000 -0.000075 -0.000000 -0.000020 4925.924316
40 0.000000 -5055.554199 0.000000 -0.000075 -0.000000 -0.000020 5055.554199
[Pelvis]
38 502.698059 55.389668 5212.522949 -85.064819 -80.752525 64.534256 5237.000000
39 508.434113 76.451538 5198.582520 -71.941978 -83.697456 53.231895 5223.945801
40 501.288666 99.370697 5161.838379 -39.179024 -85.836693 22.754335 5187.074707
[L_Hip]
38 5.766392 125.831482 872.656799 -178.250168 -81.786369 87.376007 881.701050
39 5.766392 125.831482 872.656799 -178.250168 -81.786369 87.376007 881.701050
40 5.766392 125.831482 872.656799 -178.250168 -81.786369 87.376007 881.701050
[R_Hip]
38 5.765438 125.836372 -872.654907 -1.748770 81.786041 87.376961 881.699829
39 5.765438 125.836372 -872.654907 -1.748770 81.786041 87.376961 881.699829
40 5.765438 125.836372 -872.654907 -1.748770 81.786041 87.376961 881.699829
[Rear_Leg01]
38 -192.298416 -925.602966 -0.001907 157.453201 -7.311736 156.103180 945.367432
39 -192.298416 -925.602966 -0.001907 159.118301 -6.548675 157.999100 945.367432
40 -192.298416 -925.602966 -0.001907 161.195053 -5.362626 159.862152 945.367432
[Spine1]
38 290.604584 5.007505 0.000477 16.046932 -8.340850 11.408173 290.647736
39 290.604584 5.007505 0.000477 13.823006 -8.778515 14.922290 290.647736
40 290.604584 5.007505 0.000477 11.573840 -9.080189 18.454508 290.647736
[L_Leg01]
38 761.932007 -0.002384 -0.069261 47.192337 -1.289172 -57.979790 761.932068
39 761.932007 -0.002384 -0.069261 52.485977 6.979209 -64.482330 761.932068
40 761.932007 -0.002384 -0.069261 57.181690 13.049386 -68.330292 761.932068
[L_Leg02]
38 1441.140503 -0.000954 -0.000715 5.069078 0.786449 -130.574097 1441.140503
39 1441.140503 -0.000954 -0.000715 4.361522 0.560236 -121.803856 1441.140503
40 1441.140503 -0.000954 -0.000715 3.485521 0.246296 -116.591728 1441.140503
[L_Leg03]
38 1686.963989 -0.000715 -0.000954 -0.077789 0.044612 131.722351 1686.963989
39 1686.963989 -0.000715 -0.000954 -0.076151 0.039365 130.614365 1686.963989
40 1686.963989 -0.000715 -0.000954 -0.063895 0.032888 127.684608 1686.963989
[L_Foot]
38 3041.570068 -30.715107 11.297464 -20.353712 9.734816 66.791809 3041.746094
39 3041.570068 -30.715107 11.297464 -21.743227 9.141905 59.534702 3041.746094
40 3041.570068 -30.715107 11.297464 -22.964098 8.371751 55.656937 3041.746094
[L_Toe1_01]
38 -188.216690 -224.732346 -21.137953 88.657928 -1.683110 -139.844330 293.899567
39 -188.216690 -224.732346 -21.137953 88.666237 -1.710359 -139.801453 293.899567
40 -188.216690 -224.732346 -21.137953 88.674530 -1.737610 -139.758591 293.899567
[L_Toe2_01]
38 200.746536 -219.926590 148.838394 -73.539177 -3.722984 -74.150429 332.896027
39 200.746536 -219.926590 148.838394 -73.664017 -3.694314 -73.300995 332.896027
40 200.746536 -219.926590 148.838394 -73.752769 -3.668532 -72.776360 332.896027
[L_Toe3_01]
38 188.832520 -219.859131 -191.078659 -110.948242 4.435067 -75.232536 347.140900
39 188.832520 -219.859131 -191.078659 -110.790268 4.402562 -74.379257 347.140900
40 188.832520 -219.859131 -191.078659 -110.676094 4.371584 -73.853394 347.140900
[planeAlignerLeft]
38 63.040295 -766.775452 -4.267853 0.000000 -90.000000 -90.001900 769.374329
39 64.942604 -762.225220 -6.923798 0.000000 -90.000000 -90.001900 765.018127
40 68.878845 -760.732422 -8.264145 0.000000 -90.000000 -90.001900 763.888977
[L_Toe1_02]
38 413.761139 0.000477 0.000000 0.001463 -16.662394 0.001463 413.761139
39 413.761139 0.000477 0.000000 0.001467 -16.218636 0.001467 413.761139
40 413.761139 0.000477 0.000000 0.001472 -15.774887 0.001472 413.761139
[L_Toe1_03]
38 464.317322 0.000358 -0.000089 -179.996140 78.254677 -179.992630 464.317322
39 464.317322 0.000358 -0.000089 -179.996689 76.990822 -179.993164 464.317322
40 464.317322 0.000358 -0.000089 -179.997131 75.726982 -179.993607 464.317322
[L_Toe2_02]
38 342.235809 -0.000477 0.000238 0.001180 -77.760719 0.001180 342.235809
39 342.235809 -0.000477 0.000238 0.001180 -77.681297 0.001180 342.235809
40 342.235809 -0.000477 0.000238 0.001181 -77.601868 0.001181 342.235809
[L_Toe2_03]
38 420.210846 -0.000715 0.000000 -179.996750 76.852631 -179.993225 420.210846
39 420.210846 -0.000715 0.000000 -179.996597 77.243050 -179.993073 420.210846
40 420.210846 -0.000715 0.000000 -179.996429 77.633400 -179.992905 420.210846
[L_Toe3_02]
38 329.270111 0.000954 0.000000 0.001177 -81.443886 0.001177 329.270111
39 329.270111 0.000954 0.000000 0.001177 -81.370255 0.001177 329.270111
40 329.270111 0.000954 0.000000 0.001177 -81.296600 0.001177 329.270111
[L_Toe3_03]
38 439.137451 -0.001907 0.000954 -179.997498 74.517731 -179.993973 439.137451
39 439.137451 -0.001907 0.000954 -179.997391 74.865524 -179.993881 439.137451
40 439.137451 -0.001907 0.000954 -179.997299 75.213287 -179.993774 439.137451
[planeLockWeightLeft]
38 0.000000 0.098259 0.076065 -0.011826 -0.004376 0.005620 0.124261
39 0.000000 0.098267 0.076065 -0.011826 -0.004376 0.005620 0.124267
40 103.998741 0.098572 0.076065 -0.011826 -0.004376 0.005620 103.998817
[R_Leg01]
38 761.455627 -0.001907 -0.000358 94.484329 -26.996000 82.652405 761.455688
39 761.455627 -0.001907 -0.000358 97.256371 -27.034258 81.049927 761.455688
40 761.455627 -0.001907 -0.000358 100.480629 -28.496206 78.404327 761.455688
[R_Leg02]
38 1441.140625 0.000000 -0.000238 0.202716 0.007376 -95.493607 1441.140625
39 1441.140625 0.000000 -0.000238 0.186387 -0.002739 -100.532883 1441.140625
40 1441.140625 0.000000 -0.000238 0.130183 -0.017170 -107.995720 1441.140625
[R_Leg03]
38 1686.963989 0.000954 0.001431 -0.018269 0.003939 105.747070 1686.963989
39 1686.963989 0.000954 0.001431 -0.014876 0.002891 106.704247 1686.963989
40 1686.963989 0.000954 0.001431 -0.011502 0.001787 107.661247 1686.963989
[R_Foot]
38 3041.560059 -30.531288 -11.204481 4.354690 -9.260271 59.609451 3041.734131
39 3041.560059 -30.531288 -11.204481 3.963984 -8.335156 60.082886 3041.734131
40 3041.560059 -30.531288 -11.204481 3.770956 -7.514496 61.463028 3041.734131
[planeAlignerRight]
38 28.840467 -670.701721 12.982208 0.000000 -89.960434 -90.005180 671.447021
39 23.525909 -698.039124 10.342133 0.000000 -89.960434 -90.005180 698.512024
40 18.211348 -725.376526 7.702056 0.000000 -89.960434 -90.005180 725.645996
[R_Toe1_01]
38 -188.383347 -224.864899 21.052242 90.751297 1.372423 -162.150818 294.101532
39 -188.383347 -224.864899 21.052242 90.800415 1.464891 -159.771622 294.101532
40 -188.383347 -224.864899 21.052242 90.853371 1.555317 -157.390198 294.101532
[R_Toe2_01]
38 200.637817 -220.002121 -148.787384 -102.625099 10.442825 -48.760468 332.857574
39 200.637817 -220.002121 -148.787384 -103.059715 10.238204 -50.698711 332.857574
40 200.637817 -220.002121 -148.787384 -103.486641 10.019308 -52.633499 332.857574
[R_Toe3_01]
38 188.606735 -220.092957 191.126343 -72.989708 -14.381855 -51.021740 347.192566
39 188.606735 -220.092957 191.126343 -72.564140 -13.786871 -52.842789 347.192566
40 188.606735 -220.092957 191.126343 -72.128395 -13.189386 -54.734570 347.192566
[planeLockWeightRight]
38 999.999634 -0.000789 0.076047 -0.011823 -0.004379 -0.000027 999.999634
39 999.999634 -0.000779 0.076044 -0.011823 -0.004379 -0.000027 999.999634
40 999.999634 -0.000768 0.076041 -0.011823 -0.004379 -0.000027 999.999634
[R_Toe1_02]
38 413.762085 0.000477 -0.000119 0.001415 -22.028307 0.001415 413.762085
39 413.762085 0.000477 -0.000119 0.001410 -22.691141 0.001410 413.762085
40 413.762085 0.000477 -0.000119 0.001405 -23.354013 0.001405 413.762085
[R_Toe1_03]
38 464.317810 0.000000 0.001088 -0.010869 82.771919 -0.007366 464.317810
39 464.317810 0.000000 0.001088 0.002413 79.557045 0.004170 464.317810
40 464.317810 0.000000 0.001088 0.009870 76.342194 0.009870 464.317810
[R_Toe2_02]
38 342.234741 -0.000954 0.000238 -0.002344 -74.804741 -0.002344 342.234741
39 342.234741 -0.000954 0.000238 -0.001640 -74.007210 -0.001640 342.234741
40 342.234741 -0.000954 0.000238 -0.000935 -73.209526 -0.000935 342.234741
[R_Toe2_03]
38 420.210846 0.000715 -0.000268 -179.970032 87.664772 -179.973526 420.210846
39 420.210846 0.000715 -0.000268 0.000000 89.895325 -0.003497 420.210846
40 420.210846 0.000715 -0.000268 -0.029275 87.876984 -0.032773 420.210846
[R_Toe3_02]
38 329.270355 -0.000477 -0.000954 0.001180 -78.292625 0.001180 329.270355
39 329.270355 -0.000477 -0.000954 0.001180 -77.817520 0.001180 329.270355
40 329.270355 -0.000477 -0.000954 0.001181 -77.164101 0.001181 329.270355
[R_Toe3_03]
38 439.137939 0.000238 0.001431 -179.985092 86.043335 -179.981598 439.137939
39 439.137939 0.000238 0.001431 -179.970490 87.891327 -179.966995 439.137939
40 439.137939 0.000238 0.001431 0.000000 89.739807 0.003502 439.137939
[Rear_Leg02]
38 1162.777710 -0.029802 0.005960 -1.829968 4.570233 -118.187111 1162.777710
39 1162.777710 -0.029802 0.005960 -1.501731 3.357148 -120.131790 1162.777710
40 1162.777710 -0.029802 0.005960 -1.080324 2.068959 -123.372726 1162.777710
[Rear_Leg03]
38 607.192505 -0.013351 -0.073195 0.010472 -0.005147 68.704407 607.192505
39 607.192505 -0.013351 -0.073195 0.010425 -0.005242 69.738213 607.192505
40 607.192505 -0.013351 -0.073195 0.010377 -0.005335 70.772003 607.192505
[Rear_Leg04]
38 995.874512 -0.020504 -0.011921 -0.040232 -0.018720 67.457024 995.874573
39 995.874512 -0.020504 -0.011921 -0.040531 -0.018062 69.322563 995.874573
40 995.874512 -0.020504 -0.011921 -0.040975 -0.017031 72.222336 995.874573
[Rear_Foot]
38 3096.176270 -0.067472 -0.041425 117.368896 84.580185 -97.088188 3096.176270
39 3096.176270 -0.067472 -0.041425 127.157494 85.617111 -89.501053 3096.176270
40 3096.176270 -0.067472 -0.041425 141.777252 86.496864 -77.081970 3096.176270
[planeAlignerCenter]
38 1.038628 91.746162 -712.981689 0.000009 0.000003 -179.999985 718.861145
39 1.037102 96.761108 -724.919434 0.000009 0.000003 -179.999985 731.349365
40 1.037168 101.052734 -743.034851 0.000009 0.000003 -179.999985 749.875671
[Rear_Toe1_01]
38 0.653352 83.966492 -371.173737 0.055418 23.050814 90.032471 380.553192
39 0.653352 83.966492 -371.173737 0.059383 24.241932 90.032150 380.553192
40 0.653352 83.966492 -371.173737 0.063377 25.433050 90.031883 380.553192
[Rear_Toe2_01]
38 178.200760 -294.826019 -362.060547 1.213092 47.335392 -69.384331 499.765686
39 178.200760 -294.826019 -362.060547 1.344945 48.377895 -69.203514 499.765686
40 178.200760 -294.826019 -362.060547 1.484633 49.420090 -69.015160 499.765686
[Rear_Toe3_01]
38 -153.359680 -308.780914 -362.060852 -1.484622 47.343040 -113.144547 499.952881
39 -153.359680 -308.780914 -362.060852 -1.635656 48.380894 -113.346245 499.952881
40 -153.359680 -308.780914 -362.060852 -1.795473 49.418365 -113.556335 499.952881
[planeLockWeightCenter]
38 1000.000000 0.000190 0.076244 -0.011814 -0.004373 -0.000015 1000.000000
39 1000.000000 0.000206 0.076245 -0.011814 -0.004373 -0.000015 1000.000000
40 1000.000000 0.000223 0.076245 -0.011814 -0.004373 -0.000015 1000.000000
[Rear_Toe1_02]
38 379.707825 0.194073 0.000477 -0.000767 -33.624729 0.000838 379.707855
39 379.707825 0.194073 0.000477 -0.000767 -33.624729 0.000838 379.707855
40 379.707825 0.194073 0.000477 -0.000767 -33.624729 0.000838 379.707855
[Rear_Toe1_03]
38 500.129700 0.165701 0.000119 -0.004894 68.734383 -0.001336 500.129761
39 500.129700 0.165701 0.000119 -0.004628 66.673851 -0.001058 500.129761
40 500.129700 0.165701 0.000119 -0.004342 63.907757 -0.000752 500.129761
[Rear_Toe2_02]
38 340.494507 0.000238 -0.000954 0.001174 -85.896782 0.001174 340.494507
39 340.494507 0.000238 -0.000954 0.001174 -85.618675 0.001174 340.494507
40 340.494507 0.000238 -0.000954 0.001175 -85.340363 0.001175 340.494507
[Rear_Toe2_03]
38 433.103577 0.000000 0.000238 179.987885 78.880806 179.987885 433.103546
39 433.103577 0.000000 0.000238 179.987564 79.175690 179.987564 433.103546
40 433.103577 0.000000 0.000238 179.986420 80.089897 179.986420 433.103546
[Rear_Toe3_02]
38 340.494141 -0.000358 -0.000477 0.001174 -85.795509 0.001174 340.494171
39 340.494141 -0.000358 -0.000477 0.001175 -85.510925 0.001175 340.494171
40 340.494141 -0.000358 -0.000477 0.001175 -85.226067 0.001175 340.494171
[Rear_Toe3_03]
38 433.103577 0.001431 -0.000238 -179.995667 79.169258 -179.992157 433.103546
39 433.103577 0.001431 -0.000238 -179.995499 79.464790 -179.991989 433.103546
40 433.103577 0.001431 -0.000238 -179.994904 80.387459 -179.991394 433.103546
[Back_Bone]
38 1312.175781 -701.934692 0.000954 2.119731 3.088091 -82.075951 1488.125488
39 1312.175781 -701.934692 0.000954 1.861840 3.118276 -81.621895 1488.125488
40 1312.175781 -701.934692 0.000954 1.604195 3.150501 -81.167984 1488.125488
[Head]
38 1406.159424 809.709290 0.001431 2.821666 -1.433326 19.550058 1622.625488
39 1406.159424 809.709290 0.001431 2.640017 -1.105159 19.930130 1622.625488
40 1406.159424 809.709290 0.001431 2.365140 -0.799537 21.177187 1622.625488
[Motor_Bone]
38 1158.364380 -417.834747 0.000477 -5.513593 1.191234 -104.796593 1231.419434
39 1158.364380 -417.834747 0.000477 -3.495568 0.584013 -105.401451 1231.419434
40 1158.364380 -417.834747 0.000477 0.251812 -0.541796 -106.527893 1231.419434
[Ping_Mechanism]
38 1252.905762 -448.488647 22.436462 0.000103 -0.000053 82.120995 1330.946411
39 1238.054932 -443.510803 21.129776 0.000103 -0.000053 82.120995 1315.267334
40 1222.695068 -435.486389 21.319941 0.000103 -0.000053 82.120995 1298.108765
[BN_LookIK]
38 193.241119 1380.371704 -0.002861 0.000000 89.965736 -31.038179 1393.832153
39 193.241119 1380.371704 -0.002861 0.000000 89.965736 -31.038179 1393.832153
40 193.241119 1380.371704 -0.002861 0.000000 89.965736 -31.038179 1393.832153
[bottomMouth]
38 -435.092926 615.759399 -0.000954 -0.000022 0.000016 73.527184 753.966492
39 -435.092926 615.759399 -0.000954 -0.000022 0.000016 73.527184 753.966492
40 -435.092926 615.759399 -0.000954 -0.000022 0.000016 73.527184 753.966492
[L_Mouth01]
38 554.440979 7.658243 838.222046 150.204178 23.759130 109.605339 1005.027161
39 554.440979 7.658243 838.222046 150.204178 23.759130 109.605339 1005.027161
40 554.440979 7.658243 838.222046 150.204178 23.759130 109.605339 1005.027161
[L_mouthFront]
38 551.629089 934.514771 339.150421 0.000081 2.804060 79.119301 1136.941284
39 551.629089 934.514771 339.150421 0.000081 2.804060 79.119301 1136.941284
40 551.629089 934.514771 339.150421 0.000081 2.804060 79.119301 1136.941284
[mouthGun]
38 55.332661 1627.420898 0.000000 0.000023 0.000009 -11.038128 1628.361328
39 55.332661 1627.420898 0.000000 0.000023 0.000009 -11.038128 1628.361328
40 55.332661 1627.420898 0.000000 0.000023 0.000009 -11.038128 1628.361328
[R_Mouth01]
38 554.442383 7.659197 -838.223938 29.795891 -23.759109 109.605331 1005.029541
39 554.442383 7.659197 -838.223938 29.795891 -23.759109 109.605331 1005.029541
40 554.442383 7.659197 -838.223938 29.795891 -23.759109 109.605331 1005.029541
[R_mouthFront]
38 551.629089 934.514282 -339.151367 0.000029 -2.803930 79.119133 1136.941162
39 551.629089 934.514282 -339.151367 0.000029 -2.803930 79.119133 1136.941162
40 551.629089 934.514282 -339.151367 0.000029 -2.803930 79.119133 1136.941162
[TopMouth]
38 461.269867 -56.106091 -0.008583 -0.000059 -0.000268 92.025169 464.669525
39 461.269867 -56.106091 -0.008583 -0.000059 -0.000268 92.025169 464.669525
40 461.269867 -56.106091 -0.008583 -0.000059 -0.000268 92.025169 464.669525
[weapon_bone]
38 -987.239868 1448.372803 0.001431 0.000000 89.965736 -31.038221 1752.833740
39 -987.239868 1448.372803 0.001431 0.000000 89.965736 -31.038221 1752.833740
40 -987.239868 1448.372803 0.001431 0.000000 89.965736 -31.038221 1752.833740
